<svg width="208" height="96" viewBox="0 0 208 96" fill="none" xmlns="http://www.w3.org/2000/svg">
<path d="M43.9014 18.6357L38.4883 35.0547L44.418 55H34.6475L30.8291 39.4121V55H21.373V18.6357H30.8291V32.7637L35.0293 18.6357H43.9014ZM45.834 23.3789H51.6543C55.5345 23.3789 58.1582 23.5286 59.5254 23.8281C60.9056 24.1276 62.0254 24.8958 62.8848 26.1328C63.7572 27.3568 64.1934 29.3164 64.1934 32.0117C64.1934 34.4727 63.8874 36.1263 63.2754 36.9727C62.6634 37.819 61.459 38.3268 59.6621 38.4961C61.2897 38.8997 62.3835 39.4401 62.9434 40.1172C63.5033 40.7943 63.8483 41.4193 63.9785 41.9922C64.1217 42.5521 64.1934 44.1081 64.1934 46.6602V55H56.5566V44.4922C56.5566 42.7995 56.4199 41.7513 56.1465 41.3477C55.8861 40.944 55.1895 40.7422 54.0566 40.7422V55H45.834V23.3789ZM54.0566 28.7891V35.8203C54.9811 35.8203 55.6257 35.6966 55.9902 35.4492C56.3678 35.1888 56.5566 34.362 56.5566 32.9688V31.2305C56.5566 30.2279 56.3743 29.5703 56.0098 29.2578C55.6582 28.9453 55.0072 28.7891 54.0566 28.7891ZM92.7676 23.3789V55H85.5801V33.6523L82.709 55H77.6113L74.584 34.1406V55H67.3965V23.3789H78.041C78.3535 25.2799 78.6855 27.5195 79.0371 30.0977L80.1699 38.1445L82.0449 23.3789H92.7676ZM110.268 23.3789L114.975 55H106.557L106.146 49.3164H103.197L102.709 55H94.1934L98.373 23.3789H110.268ZM105.912 43.7109C105.495 40.1302 105.079 35.7096 104.662 30.4492C103.829 36.4909 103.308 40.9115 103.1 43.7109H105.912ZM135.248 35.0195H127.025V32.1484C127.025 30.3385 126.947 29.2057 126.791 28.75C126.635 28.2943 126.264 28.0664 125.678 28.0664C125.17 28.0664 124.825 28.2617 124.643 28.6523C124.46 29.043 124.369 30.0456 124.369 31.6602V46.8359C124.369 48.2552 124.46 49.1927 124.643 49.6484C124.825 50.0911 125.189 50.3125 125.736 50.3125C126.335 50.3125 126.739 50.0586 126.947 49.5508C127.169 49.043 127.279 48.0534 127.279 46.582V42.832H125.619V38.0273H135.248V55H130.072L129.311 52.7344C128.751 53.7109 128.041 54.4466 127.182 54.9414C126.335 55.4232 125.333 55.6641 124.174 55.6641C122.794 55.6641 121.498 55.332 120.287 54.668C119.089 53.9909 118.178 53.1576 117.553 52.168C116.928 51.1784 116.537 50.1432 116.381 49.0625C116.225 47.9688 116.146 46.3346 116.146 44.1602V34.7656C116.146 31.7448 116.309 29.5508 116.635 28.1836C116.96 26.8164 117.891 25.5664 119.428 24.4336C120.977 23.2878 122.976 22.7148 125.424 22.7148C127.833 22.7148 129.831 23.2096 131.42 24.1992C133.008 25.1888 134.044 26.3672 134.525 27.7344C135.007 29.0885 135.248 31.0612 135.248 33.6523V35.0195ZM155.873 32.9492H148.236V30.6055C148.236 29.5117 148.139 28.8151 147.943 28.5156C147.748 28.2161 147.423 28.0664 146.967 28.0664C146.472 28.0664 146.094 28.2682 145.834 28.6719C145.587 29.0755 145.463 29.6875 145.463 30.5078C145.463 31.5625 145.606 32.3568 145.893 32.8906C146.166 33.4245 146.941 34.069 148.217 34.8242C151.876 36.9987 154.18 38.7826 155.131 40.1758C156.081 41.569 156.557 43.8151 156.557 46.9141C156.557 49.1667 156.29 50.8268 155.756 51.8945C155.235 52.9622 154.219 53.8607 152.709 54.5898C151.199 55.306 149.441 55.6641 147.436 55.6641C145.235 55.6641 143.354 55.2474 141.791 54.4141C140.242 53.5807 139.226 52.5195 138.744 51.2305C138.262 49.9414 138.021 48.112 138.021 45.7422V43.6719H145.658V47.5195C145.658 48.7044 145.762 49.4661 145.971 49.8047C146.192 50.1432 146.576 50.3125 147.123 50.3125C147.67 50.3125 148.074 50.0977 148.334 49.668C148.607 49.2383 148.744 48.6003 148.744 47.7539C148.744 45.8919 148.49 44.6745 147.982 44.1016C147.462 43.5286 146.179 42.5716 144.135 41.2305C142.09 39.8763 140.736 38.8932 140.072 38.2812C139.408 37.6693 138.855 36.8229 138.412 35.7422C137.982 34.6615 137.768 33.2812 137.768 31.6016C137.768 29.1797 138.074 27.4089 138.686 26.2891C139.311 25.1693 140.313 24.2969 141.693 23.6719C143.074 23.0339 144.74 22.7148 146.693 22.7148C148.829 22.7148 150.645 23.0599 152.143 23.75C153.653 24.4401 154.649 25.3125 155.131 26.3672C155.626 27.4089 155.873 29.1862 155.873 31.6992V32.9492Z" fill="white"/>
<path d="M56.7188 72.2734L56.4355 72.2832V67.1562H56.7188C56.8815 68.4974 57.3112 69.5521 58.0078 70.3203C58.7109 71.082 59.5898 71.4629 60.6445 71.4629C61.4323 71.4629 62.0833 71.222 62.5977 70.7402C63.1185 70.2585 63.3789 69.653 63.3789 68.9238C63.3789 68.3444 63.2292 67.8366 62.9297 67.4004C62.6367 66.9577 62.0671 66.4434 61.2207 65.8574C60.9993 65.7077 60.6608 65.4896 60.2051 65.2031C59.0462 64.4674 58.2096 63.8522 57.6953 63.3574C57.3372 63.0124 57.0573 62.6055 56.8555 62.1367C56.6602 61.668 56.5625 61.1764 56.5625 60.6621C56.5625 59.5423 56.9368 58.6374 57.6855 57.9473C58.4342 57.2507 59.4108 56.9023 60.6152 56.9023C61.1686 56.9023 61.7448 57.0163 62.3438 57.2441C62.9492 57.4655 63.3073 57.5762 63.418 57.5762C63.6263 57.5762 63.7923 57.5208 63.916 57.4102C64.0462 57.293 64.1276 57.1237 64.1602 56.9023H64.4434V61.7363H64.1602C64.0234 60.4277 63.6296 59.4186 62.9785 58.709C62.334 57.9993 61.4876 57.6445 60.4395 57.6445C59.7884 57.6445 59.2448 57.8561 58.8086 58.2793C58.3789 58.696 58.1641 59.2233 58.1641 59.8613C58.1641 60.8314 59.1113 61.9056 61.0059 63.084C61.2858 63.2533 61.4974 63.3867 61.6406 63.4844C63.0469 64.3633 64.0007 65.1478 64.502 65.8379C65.0098 66.528 65.2637 67.3288 65.2637 68.2402C65.2637 69.4512 64.8665 70.4277 64.0723 71.1699C63.2845 71.9121 62.2461 72.2832 60.957 72.2832C60.293 72.2832 59.5703 72.14 58.7891 71.8535C58.0143 71.5671 57.5456 71.4238 57.3828 71.4238C57.181 71.4238 57.0247 71.4954 56.9141 71.6387C56.8034 71.7819 56.7383 71.9935 56.7188 72.2734ZM71.875 62.3223C71.0221 62.3223 70.3516 62.6836 69.8633 63.4062C69.3815 64.1289 69.1406 65.1348 69.1406 66.4238C69.1406 67.9733 69.4434 69.2363 70.0488 70.2129C70.6543 71.1895 71.4323 71.6777 72.3828 71.6777C73.2812 71.6777 73.9616 71.349 74.4238 70.6914C74.8861 70.0273 75.1172 69.0508 75.1172 67.7617C75.1172 66.1341 74.8145 64.8223 74.209 63.8262C73.6035 62.8236 72.8255 62.3223 71.875 62.3223ZM67.3828 67.0586C67.3828 65.4896 67.8353 64.2135 68.7402 63.2305C69.6517 62.2474 70.8301 61.7559 72.2754 61.7559C73.6686 61.7559 74.7819 62.2214 75.6152 63.1523C76.4551 64.0833 76.875 65.3268 76.875 66.8828C76.875 68.5104 76.4355 69.8125 75.5566 70.7891C74.6842 71.7591 73.5124 72.2441 72.041 72.2441C70.6673 72.2441 69.5475 71.7624 68.6816 70.7988C67.8158 69.8353 67.3828 68.5885 67.3828 67.0586ZM80.918 70.2812C80.918 70.8672 81.0124 71.2611 81.2012 71.4629C81.3965 71.6582 81.7611 71.7559 82.2949 71.7559V72H77.8223V71.7656C78.3952 71.7461 78.776 71.6452 78.9648 71.4629C79.1602 71.2741 79.2578 70.8542 79.2578 70.2031V59.6172C79.2578 59.0117 79.1927 58.6406 79.0625 58.5039C78.9323 58.3672 78.6784 58.2988 78.3008 58.2988C78.1901 58.2988 78.099 58.3021 78.0273 58.3086C77.9622 58.3086 77.8939 58.3118 77.8223 58.3184V58.1035C78.304 57.9538 78.7956 57.7812 79.2969 57.5859C79.8047 57.3906 80.3451 57.1628 80.918 56.9023V70.2812ZM90.0391 69.4023V63.6797C90.0391 63.0872 89.9414 62.6934 89.7461 62.498C89.5573 62.2962 89.1862 62.1953 88.6328 62.1953H88.5352V61.9805H91.7383V69.5586C91.7383 70.1706 91.8001 70.5449 91.9238 70.6816C92.054 70.8118 92.3112 70.877 92.6953 70.877C92.806 70.877 92.8939 70.877 92.959 70.877C93.0241 70.8704 93.0827 70.8672 93.1348 70.8672V71.1016C92.5618 71.2904 92.0182 71.4824 91.5039 71.6777C90.9896 71.8665 90.5078 72.0553 90.0586 72.2441L90.0391 70.1445C89.5378 70.8346 89.0007 71.3587 88.4277 71.7168C87.8548 72.0684 87.2559 72.2441 86.6309 72.2441C85.8171 72.2441 85.2344 71.9642 84.8828 71.4043C84.5312 70.8444 84.3555 69.8776 84.3555 68.5039V63.6797C84.3555 63.0938 84.2578 62.6999 84.0625 62.498C83.8737 62.2962 83.5124 62.1953 82.9785 62.1953V61.9805H86.0156V68.8848C86.0156 69.679 86.1165 70.2389 86.3184 70.5645C86.5267 70.8835 86.8783 71.043 87.373 71.043C87.8743 71.043 88.3594 70.8965 88.8281 70.6035C89.3034 70.3105 89.707 69.9102 90.0391 69.4023ZM95.3711 62.5762H93.9746V62.3223C94.6517 62.0488 95.2214 61.6549 95.6836 61.1406C96.1523 60.6198 96.5169 59.9655 96.7773 59.1777H97.0508V62.0195H99.0137V62.5762H97.0508V69.1582C97.0508 69.998 97.1289 70.5449 97.2852 70.7988C97.4414 71.0527 97.7246 71.1797 98.1348 71.1797C98.3561 71.1797 98.5742 71.1243 98.7891 71.0137C99.0104 70.8965 99.2643 70.7044 99.5508 70.4375L99.7168 70.584C99.3848 71.1439 99.0169 71.5605 98.6133 71.834C98.2096 72.1074 97.7572 72.2441 97.2559 72.2441C96.6048 72.2441 96.1263 72.0195 95.8203 71.5703C95.5208 71.1211 95.3711 70.4115 95.3711 69.4414V62.5762ZM103.203 70.2812C103.203 70.8737 103.298 71.2676 103.486 71.4629C103.675 71.6582 104.036 71.7559 104.57 71.7559V72H100.088V71.7656C100.674 71.7396 101.058 71.6354 101.24 71.4531C101.429 71.2708 101.523 70.8542 101.523 70.2031V64.4023C101.523 63.8034 101.465 63.4388 101.348 63.3086C101.237 63.1719 100.99 63.1035 100.605 63.1035C100.488 63.1035 100.391 63.1068 100.312 63.1133C100.234 63.1133 100.16 63.1133 100.088 63.1133V62.8789C100.628 62.7161 101.156 62.5371 101.67 62.3418C102.191 62.1465 102.702 61.9316 103.203 61.6973V70.2812ZM101.406 58.2402C101.406 57.9993 101.494 57.7943 101.67 57.625C101.846 57.4492 102.057 57.3613 102.305 57.3613C102.559 57.3613 102.77 57.446 102.939 57.6152C103.115 57.7845 103.203 57.9928 103.203 58.2402C103.203 58.4876 103.112 58.7025 102.93 58.8848C102.754 59.0671 102.546 59.1582 102.305 59.1582C102.057 59.1582 101.846 59.0703 101.67 58.8945C101.494 58.7122 101.406 58.4941 101.406 58.2402ZM110.02 62.3223C109.167 62.3223 108.496 62.6836 108.008 63.4062C107.526 64.1289 107.285 65.1348 107.285 66.4238C107.285 67.9733 107.588 69.2363 108.193 70.2129C108.799 71.1895 109.577 71.6777 110.527 71.6777C111.426 71.6777 112.106 71.349 112.568 70.6914C113.031 70.0273 113.262 69.0508 113.262 67.7617C113.262 66.1341 112.959 64.8223 112.354 63.8262C111.748 62.8236 110.97 62.3223 110.02 62.3223ZM105.527 67.0586C105.527 65.4896 105.98 64.2135 106.885 63.2305C107.796 62.2474 108.975 61.7559 110.42 61.7559C111.813 61.7559 112.926 62.2214 113.76 63.1523C114.6 64.0833 115.02 65.3268 115.02 66.8828C115.02 68.5104 114.58 69.8125 113.701 70.7891C112.829 71.7591 111.657 72.2441 110.186 72.2441C108.812 72.2441 107.692 71.7624 106.826 70.7988C105.96 69.8353 105.527 68.5885 105.527 67.0586ZM117.559 64.4023C117.559 63.8099 117.493 63.4453 117.363 63.3086C117.24 63.1719 116.986 63.1035 116.602 63.1035C116.491 63.1035 116.4 63.1068 116.328 63.1133C116.257 63.1133 116.188 63.1133 116.123 63.1133V62.8789C116.657 62.7161 117.184 62.5371 117.705 62.3418C118.226 62.14 118.73 61.9251 119.219 61.6973V63.6602C119.954 62.9375 120.563 62.4395 121.045 62.166C121.533 61.8926 122.025 61.7559 122.52 61.7559C123.333 61.7559 123.913 62.0358 124.258 62.5957C124.609 63.1556 124.785 64.1159 124.785 65.4766V70.2812C124.785 70.8737 124.88 71.2676 125.068 71.4629C125.257 71.6582 125.615 71.7559 126.143 71.7559V72H121.66V71.7656C122.246 71.7396 122.633 71.6354 122.822 71.4531C123.011 71.2708 123.105 70.8542 123.105 70.2031V65.0957C123.105 64.2689 122.992 63.696 122.764 63.377C122.536 63.0579 122.148 62.8984 121.602 62.8984C121.257 62.8984 120.915 62.9896 120.576 63.1719C120.244 63.3542 119.792 63.709 119.219 64.2363V70.2812C119.219 70.8672 119.316 71.2611 119.512 71.4629C119.707 71.6582 120.072 71.7559 120.605 71.7559V72H116.123V71.7656C116.709 71.7396 117.093 71.6354 117.275 71.4531C117.464 71.2708 117.559 70.8542 117.559 70.2031V64.4023ZM132.949 62H133.184V64.8809H132.949C132.858 64.0605 132.614 63.4323 132.217 62.9961C131.82 62.5599 131.296 62.3418 130.645 62.3418C130.117 62.3418 129.704 62.4785 129.404 62.752C129.111 63.0189 128.965 63.3867 128.965 63.8555C128.965 64.5065 129.557 65.2161 130.742 65.9844L130.83 66.043C132.021 66.8242 132.783 67.459 133.115 67.9473C133.454 68.429 133.623 68.9922 133.623 69.6367C133.623 70.3789 133.343 71.0007 132.783 71.502C132.223 71.9967 131.51 72.2441 130.645 72.2441C130.195 72.2441 129.71 72.166 129.189 72.0098C128.675 71.8535 128.379 71.7754 128.301 71.7754C128.184 71.7819 128.089 71.8047 128.018 71.8438C127.946 71.8828 127.894 71.9414 127.861 72.0195H127.627V68.8164H127.861C128.037 69.8385 128.34 70.571 128.77 71.0137C129.206 71.4564 129.831 71.6777 130.645 71.6777C131.178 71.6777 131.595 71.5475 131.895 71.2871C132.194 71.0202 132.344 70.6523 132.344 70.1836C132.344 69.474 131.644 68.6634 130.244 67.752L130.098 67.6543C129.102 67.0098 128.451 66.4694 128.145 66.0332C127.839 65.5905 127.686 65.0729 127.686 64.4805C127.686 63.7122 127.946 63.071 128.467 62.5566C128.994 62.0358 129.655 61.7754 130.449 61.7754C130.866 61.7754 131.309 61.8633 131.777 62.0391C132.253 62.2148 132.523 62.3027 132.588 62.3027C132.686 62.3027 132.764 62.2799 132.822 62.2344C132.881 62.1823 132.923 62.1042 132.949 62ZM142.148 59.3242C142.148 58.5885 142.012 58.097 141.738 57.8496C141.471 57.6022 140.928 57.472 140.107 57.459V57.1758H144.531C145.938 57.1758 146.96 57.2279 147.598 57.332C148.236 57.4297 148.792 57.5924 149.268 57.8203C149.886 58.1198 150.378 58.5788 150.742 59.1973C151.107 59.8158 151.289 60.5026 151.289 61.2578C151.289 62.4427 150.879 63.3997 150.059 64.1289C149.245 64.8581 148.167 65.2227 146.826 65.2227C146.37 65.2227 145.928 65.1738 145.498 65.0762C145.075 64.9785 144.665 64.832 144.268 64.6367V69.8613C144.268 70.597 144.401 71.0885 144.668 71.3359C144.935 71.5768 145.482 71.707 146.309 71.7266V72H140.107V71.7266C140.921 71.7005 141.465 71.5638 141.738 71.3164C142.012 71.0625 142.148 70.5775 142.148 69.8613V59.3242ZM144.268 63.9238C144.535 64.1257 144.821 64.2786 145.127 64.3828C145.433 64.487 145.758 64.5391 146.104 64.5391C147.021 64.5391 147.741 64.2526 148.262 63.6797C148.789 63.1003 149.053 62.2995 149.053 61.2773C149.053 60.2292 148.75 59.3861 148.145 58.748C147.539 58.1035 146.748 57.7812 145.771 57.7812C145.433 57.7812 145.14 57.7943 144.893 57.8203C144.645 57.8464 144.437 57.8854 144.268 57.9375V63.9238ZM156.396 72.2441H156.152L152.979 63.543C152.803 63.0612 152.617 62.7292 152.422 62.5469C152.233 62.3646 151.973 62.2637 151.641 62.2441L151.631 62H155.596V62.2441C155.238 62.2441 154.977 62.2995 154.814 62.4102C154.658 62.5208 154.58 62.6966 154.58 62.9375C154.58 63.0352 154.596 63.1654 154.629 63.3281C154.668 63.4909 154.723 63.6667 154.795 63.8555L156.797 69.4805L158.877 64.1973C158.981 63.9434 159.059 63.7025 159.111 63.4746C159.17 63.2467 159.199 63.0547 159.199 62.8984C159.199 62.651 159.131 62.4818 158.994 62.3906C158.857 62.293 158.617 62.2441 158.271 62.2441V62H160.918V62.2344C160.697 62.2539 160.498 62.3646 160.322 62.5664C160.153 62.7682 159.971 63.1133 159.775 63.6016L156.396 72.2441ZM162.598 62.5762H161.201V62.3223C161.878 62.0488 162.448 61.6549 162.91 61.1406C163.379 60.6198 163.743 59.9655 164.004 59.1777H164.277V62.0195H166.24V62.5762H164.277V69.1582C164.277 69.998 164.355 70.5449 164.512 70.7988C164.668 71.0527 164.951 71.1797 165.361 71.1797C165.583 71.1797 165.801 71.1243 166.016 71.0137C166.237 70.8965 166.491 70.7044 166.777 70.4375L166.943 70.584C166.611 71.1439 166.243 71.5605 165.84 71.834C165.436 72.1074 164.984 72.2441 164.482 72.2441C163.831 72.2441 163.353 72.0195 163.047 71.5703C162.747 71.1211 162.598 70.4115 162.598 69.4414V62.5762ZM174.473 59.3242C174.473 58.5885 174.336 58.097 174.062 57.8496C173.796 57.6022 173.252 57.472 172.432 57.459V57.1758H178.633V57.459C177.812 57.485 177.266 57.6217 176.992 57.8691C176.725 58.1165 176.592 58.6016 176.592 59.3242V70.0176C176.592 70.5579 176.663 70.8965 176.807 71.0332C176.956 71.1699 177.318 71.2383 177.891 71.2383H179.395C180.384 71.2383 181.123 71.1699 181.611 71.0332C182.106 70.8965 182.513 70.6654 182.832 70.3398C183.099 70.0729 183.34 69.7539 183.555 69.3828C183.776 69.0117 183.975 68.5788 184.15 68.084H184.434L183.232 72H172.432V71.7266C173.245 71.7135 173.789 71.5833 174.062 71.3359C174.336 71.082 174.473 70.5905 174.473 69.8613V59.3242ZM186.387 62.5762H184.99V62.3223C185.667 62.0488 186.237 61.6549 186.699 61.1406C187.168 60.6198 187.533 59.9655 187.793 59.1777H188.066V62.0195H190.029V62.5762H188.066V69.1582C188.066 69.998 188.145 70.5449 188.301 70.7988C188.457 71.0527 188.74 71.1797 189.15 71.1797C189.372 71.1797 189.59 71.1243 189.805 71.0137C190.026 70.8965 190.28 70.7044 190.566 70.4375L190.732 70.584C190.4 71.1439 190.033 71.5605 189.629 71.834C189.225 72.1074 188.773 72.2441 188.271 72.2441C187.62 72.2441 187.142 72.0195 186.836 71.5703C186.536 71.1211 186.387 70.4115 186.387 69.4414V62.5762ZM198.125 62.5371V59.6172C198.125 59.0117 198.06 58.6406 197.93 58.5039C197.799 58.3672 197.542 58.2988 197.158 58.2988C197.054 58.2988 196.969 58.3021 196.904 58.3086C196.839 58.3086 196.781 58.3118 196.729 58.3184L196.719 58.1035C197.214 57.9473 197.715 57.7682 198.223 57.5664C198.737 57.3646 199.264 57.1432 199.805 56.9023V69.2168C199.805 69.9915 199.867 70.4668 199.99 70.6426C200.114 70.8118 200.345 70.8965 200.684 70.8965H200.879C200.944 70.8965 200.993 70.8965 201.025 70.8965C201.064 70.89 201.097 70.8867 201.123 70.8867V71.1602C200.583 71.3294 200.059 71.5052 199.551 71.6875C199.049 71.8633 198.568 72.0488 198.105 72.2441V70.623C197.689 71.1374 197.227 71.5378 196.719 71.8242C196.211 72.1042 195.7 72.2441 195.186 72.2441C194.059 72.2441 193.151 71.7786 192.461 70.8477C191.771 69.9167 191.426 68.6862 191.426 67.1562C191.426 66.4271 191.536 65.7337 191.758 65.0762C191.986 64.4121 192.314 63.8197 192.744 63.2988C193.128 62.8236 193.584 62.4525 194.111 62.1855C194.639 61.9121 195.169 61.7754 195.703 61.7754C196.133 61.7754 196.549 61.8405 196.953 61.9707C197.357 62.0944 197.747 62.2832 198.125 62.5371ZM198.105 69.9004V64.3828C198.105 63.7188 197.913 63.2109 197.529 62.8594C197.145 62.5013 196.595 62.3223 195.879 62.3223C195.033 62.3223 194.336 62.6999 193.789 63.4551C193.249 64.2103 192.979 65.1934 192.979 66.4043C192.979 67.778 193.258 68.8783 193.818 69.7051C194.385 70.5254 195.133 70.9355 196.064 70.9355C196.553 70.9355 196.982 70.8411 197.354 70.6523C197.731 70.457 197.982 70.2064 198.105 69.9004Z" fill="white"/>
<path d="M99 7.60535C165 9.1054 192.5 17.6054 202 48.6053C225.5 8.6054 162 -9.89459 99 7.60535Z" fill="#DC2B1B" stroke="black" stroke-width="0.1"/>
<path d="M174.801 16H173.594V11.2969H172.16V10.2891H176.23V11.2969H174.801V16ZM179.406 16L178.152 11.5195H178.117C178.133 11.7591 178.146 11.9909 178.156 12.2148C178.161 12.3112 178.165 12.4102 178.168 12.5117C178.173 12.6133 178.177 12.7135 178.18 12.8125C178.185 12.9115 178.188 13.0065 178.188 13.0977C178.19 13.1888 178.191 13.2708 178.191 13.3438V16H177.109V10.2891H178.758L179.992 14.6562H180.016L181.328 10.2891H182.977V16H181.848V13.2969C181.848 13.2292 181.848 13.1523 181.848 13.0664C181.85 12.9805 181.853 12.8893 181.855 12.793C181.858 12.6966 181.861 12.599 181.863 12.5C181.868 12.401 181.872 12.3047 181.875 12.2109C181.885 11.9922 181.895 11.7643 181.902 11.5273H181.871L180.52 16H179.406Z" fill="white"/>
<path d="M5.805 48C14.3048 83 58.8049 89 109.305 89C55.8048 104.5 -18.6952 92.5 5.805 48Z" fill="#DC2B1B" stroke="#DC2B1B" stroke-width="0.1"/>
</svg>
